<svg width="41" height="42" viewBox="0 0 41 42" fill="none" xmlns="http://www.w3.org/2000/svg">
<path d="M16.4167 20.9992L28.6667 33.8617C29.0833 34.2992 29.285 34.8096 29.2717 35.3929C29.2583 35.9763 29.0428 36.4867 28.625 36.9242C28.2072 37.3617 27.7211 37.5804 27.1667 37.5804C26.6122 37.5804 26.1261 37.3617 25.7083 36.9242L12.875 23.4929C12.5417 23.1429 12.2917 22.7492 12.125 22.3117C11.9583 21.8742 11.875 21.4367 11.875 20.9992C11.875 20.5617 11.9583 20.1242 12.125 19.6867C12.2917 19.2492 12.5417 18.8554 12.875 18.5054L25.7083 5.03043C26.125 4.59293 26.6183 4.38118 27.1883 4.39518C27.7583 4.40918 28.2511 4.63552 28.6667 5.07418C29.0822 5.51285 29.2906 6.02327 29.2917 6.60543C29.2928 7.1876 29.0844 7.69802 28.6667 8.13668L16.4167 20.9992Z" fill="#3A2557"/>
</svg>
