<svg width="18" height="16" viewBox="0 0 18 16" fill="none" xmlns="http://www.w3.org/2000/svg">
<path fill-rule="evenodd" clip-rule="evenodd" d="M15.1381 14.544C15.1381 15.2672 14.5519 15.8525 13.8296 15.8525C13.1073 15.8525 12.5211 15.2672 12.5211 14.544C12.5211 13.8208 13.1073 13.2355 13.8296 13.2355C14.5519 13.2355 15.1381 13.8208 15.1381 14.544ZM6.41473 14.544C6.41473 15.2672 5.82852 15.8525 5.10622 15.8525C4.38392 15.8525 3.79771 15.2672 3.79771 14.544C3.79771 13.8208 4.38392 13.2355 5.10622 13.2355C5.82852 13.2355 6.41473 13.8208 6.41473 14.544ZM12.8543 9.74614H6.20886L4.78084 4.51209H15.4714L12.8543 9.74614ZM16.9552 3.59439C16.6351 3.07622 16.0803 2.76741 15.4714 2.76741H4.30541L3.76718 0.793306C3.66337 0.413837 3.3188 0.150391 2.92537 0.150391H1.18069C0.698286 0.150391 0.30835 0.541199 0.30835 1.02273C0.30835 1.50426 0.698286 1.89507 1.18069 1.89507H2.2589L4.70058 10.8479C4.80439 11.2274 5.14897 11.4908 5.54239 11.4908H13.3935C13.7241 11.4908 14.0259 11.3041 14.1742 11.0084L17.032 5.29197C17.3042 4.74675 17.2754 4.11256 16.9552 3.59439Z" fill="white"/>
</svg>
