<svg width="34" height="34" viewBox="0 0 34 34" fill="none" xmlns="http://www.w3.org/2000/svg">
<rect width="34" height="34" rx="14" fill="#FFE5E4"/>
<path d="M23.8435 10.3535H10.156C10.0086 10.3535 9.88867 10.4595 9.88867 10.5898V12.2411C9.88867 12.3714 10.0086 12.4774 10.156 12.4774H23.8435C23.9909 12.4774 24.1108 12.3714 24.1108 12.2411V10.5898C24.1108 10.4595 23.9909 10.3535 23.8435 10.3535Z" fill="#FF4444"/>
<path d="M10.6152 12.7207L11.4961 24.6754C11.5096 24.8577 11.682 25.0004 11.8887 25.0004H22.1112C22.3179 25.0004 22.4904 24.8577 22.5038 24.6754L23.3847 12.7207H10.6152ZM14.1619 23.8774C14.1462 23.8783 14.1307 23.8787 14.1151 23.8787C13.7075 23.8787 13.3641 23.5969 13.3394 23.2326L12.7528 14.5513C12.7405 14.3681 12.8094 14.1917 12.9473 14.0543C13.0852 13.9171 13.2751 13.8353 13.4823 13.8245C13.4985 13.8236 13.5142 13.8232 13.5291 13.8232C13.9394 13.8232 14.2802 14.1068 14.3048 14.4693L14.8915 23.1505C14.8925 23.1642 14.8928 23.178 14.8928 23.1916C14.8928 23.5521 14.5741 23.8556 14.1617 23.8773L14.1619 23.8774ZM17.7771 23.1993C17.7771 23.578 17.4285 23.8863 16.9998 23.8863C16.5712 23.8863 16.2226 23.578 16.2226 23.1993V14.5025C16.2226 14.1237 16.5712 13.8156 16.9998 13.8156C17.4285 13.8156 17.7771 14.1237 17.7771 14.5025V23.1993ZM21.2467 14.5513L20.6601 23.2326C20.6355 23.5969 20.292 23.8787 19.8845 23.8787C19.869 23.8787 19.8534 23.8783 19.8376 23.8774C19.4098 23.8549 19.0826 23.5287 19.108 23.1506L19.6947 14.4694C19.7192 14.107 20.06 13.8233 20.4704 13.8233C20.4853 13.8233 20.501 13.8237 20.5172 13.8246C20.7245 13.8354 20.9144 13.9172 21.0521 14.0544C21.19 14.1918 21.2591 14.3682 21.2466 14.5514L21.2467 14.5513Z" fill="#FF4444"/>
<path d="M20.1598 9.27939C20.0783 9.10963 19.8908 9 19.6821 9H14.3145C14.1058 9 13.9183 9.10963 13.8368 9.27919L13.4375 10.1094H20.5594L20.16 9.27939H20.1598Z" fill="#FF4444"/>
</svg>
