<svg width="28" height="27" viewBox="0 0 28 27" fill="none" xmlns="http://www.w3.org/2000/svg">
<path d="M14.14 22.8801L14 23.0272L13.846 22.8801C7.196 16.5384 2.8 12.345 2.8 8.09264C2.8 5.14986 4.9 2.94278 7.7 2.94278C9.856 2.94278 11.956 4.41417 12.698 6.41526H15.302C16.044 4.41417 18.144 2.94278 20.3 2.94278C23.1 2.94278 25.2 5.14986 25.2 8.09264C25.2 12.345 20.804 16.5384 14.14 22.8801ZM20.3 0C17.864 0 15.526 1.19183 14 3.06049C12.474 1.19183 10.136 0 7.7 0C3.388 0 0 3.54605 0 8.09264C0 13.6398 4.76 18.1864 11.97 25.0578L14 27L16.03 25.0578C23.24 18.1864 28 13.6398 28 8.09264C28 3.54605 24.612 0 20.3 0Z" fill="#9F85C1"/>
</svg>
