<svg width="36" height="34" viewBox="0 0 36 34" fill="none" xmlns="http://www.w3.org/2000/svg">
<path d="M33.9425 24.4046V27.7956C33.9427 28.4134 33.8211 29.0252 33.5847 29.596C33.3484 30.1668 33.0019 30.6854 32.5651 31.1223C32.1283 31.5592 31.6097 31.9058 31.0389 32.1422C30.4682 32.3787 29.8564 32.5004 29.2386 32.5004H6.3914C5.77355 32.5008 5.16167 32.3795 4.59076 32.1432C4.01986 31.907 3.50113 31.5605 3.06424 31.1236C2.62735 30.6867 2.28088 30.168 2.04465 29.5971C1.80842 29.0262 1.68705 28.4143 1.6875 27.7965V13.8172C1.6875 12.5696 2.18309 11.3732 3.06524 10.491C3.94739 9.60887 5.14385 9.11328 6.3914 9.11328H29.2386C30.486 9.11396 31.6821 9.60977 32.5641 10.4918C33.4461 11.3738 33.9419 12.5698 33.9425 13.8172V17.2082" stroke="#603699" stroke-width="2" stroke-linecap="round" stroke-linejoin="round"/>
<path d="M29.815 9.14954L28.5739 4.87188L11.992 9.11367M25.264 5.71835L23.4583 1.79688L8.8418 9.11367M23.9623 16.9131H32.8712C33.4358 16.9135 33.977 17.138 34.3762 17.5373C34.7753 17.9366 34.9996 18.478 34.9998 19.0425V22.5702C34.9996 23.1349 34.7751 23.6764 34.3758 24.0757C33.9766 24.475 33.4351 24.6994 32.8704 24.6996H23.9614C23.1998 24.699 22.4697 24.3961 21.9312 23.8575C21.3928 23.3189 21.0901 22.5886 21.0897 21.8271V19.7856C21.0901 19.0239 21.3929 18.2935 21.9315 17.7549C22.4702 17.2163 23.2005 16.9135 23.9623 16.9131Z" stroke="#603699" stroke-width="2" stroke-linecap="round" stroke-linejoin="round"/>
<path d="M25.2357 22.8113C26.2656 22.8113 27.1004 21.9765 27.1004 20.9467C27.1004 19.9169 26.2656 19.082 25.2357 19.082C24.2059 19.082 23.3711 19.9169 23.3711 20.9467C23.3711 21.9765 24.2059 22.8113 25.2357 22.8113Z" stroke="#603699" stroke-linecap="round" stroke-linejoin="round"/>
</svg>
