<svg width="40" height="42" viewBox="0 0 40 42" fill="none" xmlns="http://www.w3.org/2000/svg">
<rect width="39.4167" height="41.1859" transform="translate(0.583252 0.40625)" fill="#3A2557"/>
<path d="M16.1249 21.0109L28.3749 33.8734C28.7916 34.3109 28.9933 34.8213 28.9799 35.4047C28.9666 35.988 28.751 36.4984 28.3333 36.9359C27.9155 37.3734 27.4294 37.5922 26.8749 37.5922C26.3205 37.5922 25.8344 37.3734 25.4166 36.9359L12.5833 23.5047C12.2499 23.1546 11.9999 22.7609 11.8333 22.3234C11.6666 21.8859 11.5833 21.4484 11.5833 21.0109C11.5833 20.5734 11.6666 20.1359 11.8333 19.6984C11.9999 19.2609 12.2499 18.8671 12.5833 18.5171L25.4166 5.04215C25.8333 4.60465 26.3266 4.3929 26.8966 4.4069C27.4666 4.4209 27.9594 4.64723 28.3749 5.0859C28.7905 5.52457 28.9988 6.03498 28.9999 6.61715C29.001 7.19932 28.7927 7.70973 28.3749 8.1484L16.1249 21.0109Z" fill="#F8F8F8"/>
</svg>
