<svg width="49" height="49" viewBox="0 0 49 49" fill="none" xmlns="http://www.w3.org/2000/svg">
<rect x="1" y="0.75" width="47" height="47" rx="9.5" fill="#F7F1FF"/>
<rect x="1" y="0.75" width="47" height="47" rx="9.5" stroke="#E6D5FF"/>
<path d="M15.2599 33.4504C14.6109 33.4504 14.0555 33.2205 13.5937 32.7607C13.132 32.3008 12.9007 31.7474 12.8999 31.1004V17.0004C12.8999 16.3541 13.1312 15.8011 13.5937 15.3413C14.0563 14.8815 14.6117 14.6512 15.2599 14.6504H34.1399C34.7889 14.6504 35.3447 14.8807 35.8072 15.3413C36.2698 15.8019 36.5007 16.3549 36.4999 17.0004V31.1004C36.4999 31.7466 36.269 32.3001 35.8072 32.7607C35.3455 33.2213 34.7897 33.4512 34.1399 33.4504H15.2599ZM24.6999 25.2254L34.1399 19.3504V17.0004L24.6999 22.8754L15.2599 17.0004V19.3504L24.6999 25.2254Z" fill="#603699"/>
</svg>
