<svg width="41" height="42" viewBox="0 0 41 42" fill="none" xmlns="http://www.w3.org/2000/svg">
<path d="M24.5833 20.9992L12.3333 33.8617C11.9167 34.2992 11.715 34.8096 11.7283 35.3929C11.7417 35.9763 11.9572 36.4867 12.375 36.9242C12.7928 37.3617 13.2789 37.5804 13.8333 37.5804C14.3878 37.5804 14.8739 37.3617 15.2917 36.9242L28.125 23.4929C28.4583 23.1429 28.7083 22.7492 28.875 22.3117C29.0417 21.8742 29.125 21.4367 29.125 20.9992C29.125 20.5617 29.0417 20.1242 28.875 19.6867C28.7083 19.2492 28.4583 18.8554 28.125 18.5054L15.2917 5.03043C14.875 4.59293 14.3817 4.38118 13.8117 4.39518C13.2417 4.40918 12.7489 4.63552 12.3333 5.07418C11.9178 5.51285 11.7094 6.02327 11.7083 6.60543C11.7072 7.1876 11.9156 7.69802 12.3333 8.13668L24.5833 20.9992Z" fill="#3A2557"/>
</svg>
