<svg width="48" height="49" viewBox="0 0 48 49" fill="none" xmlns="http://www.w3.org/2000/svg">
<rect x="0.5" y="0.75" width="47" height="47" rx="9.5" fill="#F7F1FF"/>
<rect x="0.5" y="0.75" width="47" height="47" rx="9.5" stroke="#E6D5FF"/>
<path d="M18.0222 22.9056C19.6222 26.05 22.2 28.6167 25.3444 30.2278L27.7889 27.7833C28.0889 27.4833 28.5333 27.3833 28.9222 27.5167C30.1667 27.9278 31.5111 28.15 32.8889 28.15C33.5 28.15 34 28.65 34 29.2611V33.1389C34 33.75 33.5 34.25 32.8889 34.25C22.4556 34.25 14 25.7944 14 15.3611C14 14.75 14.5 14.25 15.1111 14.25H19C19.6111 14.25 20.1111 14.75 20.1111 15.3611C20.1111 16.75 20.3333 18.0833 20.7444 19.3278C20.8667 19.7167 20.7778 20.15 20.4667 20.4611L18.0222 22.9056Z" fill="#603699"/>
</svg>
