<svg width="40" height="42" viewBox="0 0 40 42" fill="none" xmlns="http://www.w3.org/2000/svg">
<rect width="39.4167" height="41.1859" transform="matrix(-1 0 0 1 39.4165 0.40625)" fill="#3A2557"/>
<path d="M23.8748 21.0109L11.6248 33.8734C11.2082 34.3109 11.0065 34.8213 11.0198 35.4047C11.0332 35.988 11.2487 36.4984 11.6665 36.9359C12.0843 37.3734 12.5704 37.5922 13.1248 37.5922C13.6793 37.5922 14.1654 37.3734 14.5832 36.9359L27.4165 23.5047C27.7498 23.1546 27.9998 22.7609 28.1665 22.3234C28.3332 21.8859 28.4165 21.4484 28.4165 21.0109C28.4165 20.5734 28.3332 20.1359 28.1665 19.6984C27.9998 19.2609 27.7498 18.8671 27.4165 18.5171L14.5832 5.04215C14.1665 4.60465 13.6732 4.3929 13.1032 4.4069C12.5332 4.4209 12.0404 4.64723 11.6248 5.0859C11.2093 5.52457 11.0009 6.03498 10.9998 6.61715C10.9987 7.19932 11.2071 7.70973 11.6248 8.1484L23.8748 21.0109Z" fill="#F8F8F8"/>
</svg>
