<svg width="28" height="27" viewBox="0 0 28 27" fill="none" xmlns="http://www.w3.org/2000/svg">
<path d="M18.3022 0H9.7132C1.8648 0 0 1.79955 0 9.35145V17.635C0 25.2005 1.8522 27 9.6978 27H18.2882C26.1338 27 28 25.214 28 17.6486V9.3663C28 1.7982 26.1478 0 18.3022 0ZM22.6044 19.2645H20.5618C19.789 19.2645 19.5566 18.6611 18.1706 17.3246C16.961 16.2 16.45 16.0596 16.1434 16.0596C15.7206 16.0596 15.6044 16.1716 15.6044 16.7346V18.5058C15.6044 18.9851 15.4434 19.2659 14.1456 19.2659C12.8863 19.1834 11.6653 18.814 10.5827 18.1881C9.50023 17.5622 8.58712 16.6977 7.9184 15.6654C6.33129 13.7626 5.22764 11.5282 4.6956 9.14085C4.6956 8.8452 4.8118 8.5779 5.3956 8.5779H7.4382C7.9632 8.5779 8.1522 8.80335 8.3566 9.3231C9.3478 12.1365 11.039 14.5827 11.725 14.5827C11.9882 14.5827 12.103 14.4707 12.103 13.8375V10.9404C12.0162 9.61875 11.2882 9.5067 11.2882 9.0288C11.2976 8.90275 11.3575 8.78517 11.4552 8.70099C11.553 8.61682 11.6809 8.57266 11.8118 8.5779H15.0206C15.4588 8.5779 15.6044 8.7885 15.6044 9.29475V13.2044C15.6044 13.6269 15.7934 13.7673 15.925 13.7673C16.1882 13.7673 16.3912 13.6269 16.8728 13.1625C17.9072 11.9461 18.7523 10.5908 19.3816 9.1395C19.4463 8.96542 19.5681 8.81642 19.7285 8.71508C19.8889 8.61374 20.0792 8.56558 20.2706 8.5779H22.3132C22.925 8.5779 23.0552 8.87355 22.925 9.29475C22.1823 10.8992 21.2633 12.4221 20.1838 13.8375C19.964 14.1615 19.8758 14.3302 20.1838 14.7096C20.3868 15.0052 21.1022 15.5817 21.5838 16.1298C22.2834 16.8032 22.8645 17.582 23.3044 18.4356C23.4794 18.9837 23.1868 19.2645 22.6044 19.2645Z" fill="#F1EDF7"/>
</svg>
