<svg width="12" height="11" viewBox="0 0 12 11" fill="none" xmlns="http://www.w3.org/2000/svg">
<path d="M11.2899 9.38478L6.49187 0.473842C6.15178 -0.157947 5.24583 -0.157947 4.90546 0.473842L0.107665 9.38478C0.0338234 9.52193 -0.00319715 9.67589 0.000216409 9.83163C0.00362997 9.98736 0.0473611 10.1396 0.127141 10.2733C0.206921 10.4071 0.320024 10.5179 0.455411 10.595C0.590797 10.672 0.74384 10.7126 0.899602 10.7128H10.4966C10.6525 10.7129 10.8057 10.6724 10.9413 10.5955C11.0769 10.5186 11.1902 10.4078 11.2701 10.2739C11.3501 10.1401 11.3939 9.98783 11.3974 9.83198C11.4009 9.67613 11.3638 9.52204 11.2899 9.38478ZM5.69881 9.33326C5.58744 9.33326 5.47858 9.30023 5.38599 9.23836C5.2934 9.17648 5.22123 9.08854 5.17861 8.98565C5.13599 8.88276 5.12484 8.76954 5.14657 8.66031C5.16829 8.55108 5.22192 8.45075 5.30067 8.372C5.37941 8.29325 5.47974 8.23962 5.58896 8.21789C5.69818 8.19616 5.81139 8.20731 5.91428 8.24993C6.01716 8.29255 6.1051 8.36473 6.16697 8.45733C6.22884 8.54993 6.26186 8.65879 6.26186 8.77016C6.26186 8.9195 6.20254 9.06273 6.09695 9.16833C5.99135 9.27393 5.84814 9.33326 5.69881 9.33326ZM6.31028 3.66995L6.14869 7.10482C6.14869 7.22429 6.10123 7.33887 6.01675 7.42335C5.93228 7.50783 5.81771 7.55529 5.69824 7.55529C5.57878 7.55529 5.46421 7.50783 5.37973 7.42335C5.29526 7.33887 5.2478 7.22429 5.2478 7.10482L5.0862 3.67136C5.08257 3.58932 5.09549 3.50738 5.1242 3.43043C5.15291 3.35349 5.19681 3.28311 5.25329 3.2235C5.30978 3.16389 5.37769 3.11625 5.45297 3.08345C5.52825 3.05064 5.60937 3.03332 5.69149 3.03253H5.6974C5.78007 3.03249 5.8619 3.0492 5.93794 3.08165C6.01399 3.11411 6.08266 3.16163 6.13984 3.22136C6.19701 3.28109 6.24148 3.35178 6.27059 3.42917C6.29969 3.50656 6.31281 3.58904 6.30916 3.67164L6.31028 3.66995Z" fill="#9747FF"/>
</svg>
