<svg width="27" height="26" viewBox="0 0 27 26" fill="none" xmlns="http://www.w3.org/2000/svg">
<mask id="mask0_605_359" style="mask-type:luminance" maskUnits="userSpaceOnUse" x="0" y="0" width="27" height="26">
<path d="M0 0H27V25.8853H0V0Z" fill="white"/>
</mask>
<g mask="url(#mask0_605_359)">
<path d="M16.0437 0.189785L15.2337 0.0807938C12.7993 -0.256181 10.3152 0.0771907 8.07092 1.04204C5.82664 2.0069 3.91466 3.56348 2.5579 5.53033C1.11433 7.41039 0.253779 9.643 0.0752863 11.9712C-0.103206 14.2995 0.407609 16.6287 1.54895 18.6909C1.66575 18.8976 1.73848 19.1245 1.76287 19.3584C1.78727 19.5923 1.76286 19.8286 1.69105 20.0533C1.10842 21.9743 0.568421 23.9089 0 25.9388L0.710526 25.7345C2.62895 25.244 4.54737 24.7536 6.46579 24.304C6.87071 24.2233 7.29159 24.2612 7.67368 24.413C9.39486 25.2183 11.2758 25.6613 13.1903 25.7124C15.1048 25.7634 17.0085 25.4213 18.7737 24.7089C20.5389 23.9965 22.1247 22.9304 23.4248 21.5821C24.7248 20.2338 25.709 18.6344 26.3113 16.8914C26.9136 15.1484 27.12 13.3021 26.9167 11.4763C26.7134 9.65054 26.1051 7.88758 25.1327 6.30573C24.1602 4.72389 22.8461 3.35977 21.2784 2.30492C19.7108 1.25007 17.926 0.528888 16.0437 0.189785ZM19.6247 18.0642C19.1083 18.5076 18.4785 18.8117 17.7995 18.9457C17.1205 19.0798 16.4166 19.0388 15.7595 18.8272C12.7823 18.0222 10.1992 16.2313 8.46947 13.7727C7.80893 12.903 7.27804 11.9492 6.89211 10.939C6.683 10.3529 6.64529 9.72302 6.78307 9.1178C6.92085 8.51258 7.22886 7.95508 7.67368 7.50578C7.89023 7.24082 8.185 7.04452 8.51957 6.94246C8.85415 6.8404 9.21304 6.8373 9.54947 6.93358C9.83368 7.0017 10.0326 7.39679 10.2884 7.69651C10.4968 8.25963 10.7384 8.80913 11.0132 9.345C11.2212 9.61817 11.3081 9.95916 11.2549 10.2935C11.2016 10.6279 11.0126 10.9285 10.7289 11.1297C10.0895 11.6747 10.1889 12.1243 10.6437 12.7373C11.6485 14.1263 13.0358 15.2205 14.6511 15.8981C15.1058 16.0888 15.4468 16.1297 15.7453 15.6801C15.8732 15.503 16.0437 15.3531 16.1858 15.1896C17.01 14.1951 16.7542 14.2087 18.0616 14.7537C18.4784 14.9217 18.8811 15.117 19.2695 15.3395C19.6532 15.5575 20.2358 15.7891 20.3211 16.116C20.4031 16.4708 20.3815 16.8403 20.2586 17.184C20.1358 17.5277 19.9165 17.8323 19.6247 18.0642Z" fill="#F1EDF7"/>
</g>
</svg>
