<svg width="30" height="30" viewBox="0 0 30 30" fill="none" xmlns="http://www.w3.org/2000/svg">
<path d="M7.5 17.416C8.22041 17.4159 8.91874 17.6563 9.47681 18.0967C10.0349 18.5371 10.4184 19.1504 10.5625 19.8327H19.375V7.74935H5.625C4.96196 7.74935 4.32607 8.00396 3.85723 8.45717C3.38839 8.91039 3.125 9.52508 3.125 10.166V19.8327H4.4375C4.58158 19.1504 4.96511 18.5371 5.52319 18.0967C6.08126 17.6563 6.77959 17.4159 7.5 17.416ZM7.5 23.4577C6.77959 23.4578 6.08126 23.2174 5.52319 22.777C4.96511 22.3366 4.58158 21.7233 4.4375 21.041H1.875V10.166C1.875 9.20461 2.27009 8.28257 2.97335 7.60275C3.67661 6.92293 4.63044 6.54102 5.625 6.54102H19.375C19.7065 6.54102 20.0245 6.66832 20.2589 6.89493C20.4933 7.12153 20.625 7.42888 20.625 7.74935V10.166H24.375L28.125 14.9993V21.041H25.5625C25.4191 21.7239 25.0358 22.3378 24.4777 22.7788C23.9195 23.2198 23.2208 23.4607 22.5 23.4607C21.7792 23.4607 21.0805 23.2198 20.5223 22.7788C19.9642 22.3378 19.5809 21.7239 19.4375 21.041H10.5625C10.4184 21.7233 10.0349 22.3366 9.47681 22.777C8.91874 23.2174 8.22041 23.4578 7.5 23.4577ZM7.5 18.6243C7.00272 18.6243 6.5258 18.8153 6.17417 19.1552C5.82254 19.4951 5.625 19.9561 5.625 20.4368C5.625 20.9176 5.82254 21.3786 6.17417 21.7185C6.5258 22.0584 7.00272 22.2493 7.5 22.2493C7.99728 22.2493 8.4742 22.0584 8.82583 21.7185C9.17746 21.3786 9.375 20.9176 9.375 20.4368C9.375 19.9561 9.17746 19.4951 8.82583 19.1552C8.4742 18.8153 7.99728 18.6243 7.5 18.6243ZM22.5 17.416C23.2204 17.4159 23.9187 17.6563 24.4768 18.0967C25.0349 18.5371 25.4184 19.1504 25.5625 19.8327H26.875V15.386L26.575 14.9993H20.625V18.0202C21.15 17.6456 21.8 17.416 22.5 17.416ZM22.5 18.6243C22.0027 18.6243 21.5258 18.8153 21.1742 19.1552C20.8225 19.4951 20.625 19.9561 20.625 20.4368C20.625 20.9176 20.8225 21.3786 21.1742 21.7185C21.5258 22.0584 22.0027 22.2493 22.5 22.2493C22.9973 22.2493 23.4742 22.0584 23.8258 21.7185C24.1775 21.3786 24.375 20.9176 24.375 20.4368C24.375 19.9561 24.1775 19.4951 23.8258 19.1552C23.4742 18.8153 22.9973 18.6243 22.5 18.6243ZM20.625 11.3743V13.791H25.625L23.75 11.3743H20.625Z" fill="#603699"/>
</svg>
