<svg width="25" height="33" viewBox="0 0 25 33" fill="none" xmlns="http://www.w3.org/2000/svg">
<path d="M1.52344 20.0996H4.80924C5.21259 20.0996 5.61045 20.2019 5.97127 20.4003L8.77277 21.9317C9.1336 22.1286 9.53146 22.2309 9.93618 22.2309H11.3657C12.7487 22.2309 13.8709 23.4569 13.8709 24.9697C13.8709 25.0317 13.8339 25.0844 13.7804 25.1015L10.2943 26.1911C9.66872 26.3864 9.00171 26.3181 8.41744 25.9989L5.42249 24.3621" stroke="#603699" stroke-width="1.5" stroke-linecap="round" stroke-linejoin="round"/>
<path d="M13.8709 23.9751L20.1722 21.788C20.7208 21.5979 21.3085 21.6083 21.8515 21.8179C22.3946 22.0275 22.8651 22.4255 23.196 22.9552C23.7022 23.7457 23.4964 24.8803 22.7583 25.3608L12.4482 32.0832C12.1258 32.2939 11.7688 32.4283 11.399 32.4781C11.0292 32.528 10.6542 32.4922 10.297 32.373L1.52344 29.4311M13.8709 6.15002H16.6148M16.6148 17.0001H13.8709C11.2834 17.0001 9.99106 17.0001 9.1871 16.0918C8.38314 15.1835 8.38314 13.7233 8.38314 10.8V7.70003C8.38314 4.77671 8.38314 3.31661 9.1871 2.4083C9.99106 1.5 11.2834 1.5 13.8709 1.5H16.6148C19.2023 1.5 20.4946 1.5 21.2986 2.4083C22.1025 3.31661 22.1026 4.77671 22.1026 7.70003V10.8C22.1026 13.7233 22.1025 15.1835 21.2986 16.0918C20.4946 17.0001 19.2023 17.0001 16.6148 17.0001Z" stroke="#603699" stroke-width="1.5" stroke-linecap="round" stroke-linejoin="round"/>
</svg>
